<svg width="120" height="40" viewBox="0 0 120 40" fill="none" xmlns="http://www.w3.org/2000/svg">
<path d="M110.135 7.92969e-06H9.53468C9.16798 7.92969e-06 8.80568 7.92951e-06 8.43995 0.00200793C8.1338 0.00400793 7.83009 0.00981793 7.521 0.0147079C6.84951 0.0226097 6.17961 0.0816842 5.5171 0.191418C4.85552 0.303541 4.21467 0.514924 3.61622 0.818418C3.0185 1.12448 2.47235 1.52218 1.99757 1.99708C1.5203 2.47064 1.12246 3.01802 0.81935 3.61817C0.5154 4.21712 0.304641 4.85895 0.19435 5.52149C0.0830109 6.18319 0.0230984 6.85253 0.01515 7.52349C0.00587 7.83009 0.00489 8.13771 0 8.44435V31.5586C0.00489 31.8691 0.00587 32.1699 0.01515 32.4805C0.0231008 33.1514 0.0830134 33.8207 0.19435 34.4824C0.304336 35.1453 0.515108 35.7875 0.81935 36.3867C1.12233 36.9849 1.52022 37.5301 1.99757 38.001C2.47054 38.478 3.01705 38.876 3.61622 39.1797C4.21467 39.484 4.85545 39.6967 5.5171 39.8105C6.17972 39.9194 6.84956 39.9785 7.521 39.9873C7.83009 39.9941 8.1338 39.998 8.43995 39.998C8.80567 40 9.168 40 9.53468 40H110.135C110.494 40 110.859 40 111.219 39.998C111.523 39.998 111.836 39.9941 112.141 39.9873C112.811 39.9789 113.479 39.9198 114.141 39.8105C114.804 39.6959 115.448 39.4833 116.049 39.1797C116.647 38.8758 117.193 38.4779 117.666 38.001C118.142 37.5282 118.541 36.9835 118.848 36.3867C119.15 35.7871 119.358 35.145 119.467 34.4824C119.578 33.8206 119.64 33.1515 119.652 32.4805C119.656 32.1699 119.656 31.8691 119.656 31.5586C119.664 31.1953 119.664 30.834 119.664 30.4648V9.53614C119.664 9.16993 119.664 8.80665 119.656 8.44435C119.656 8.13771 119.656 7.83009 119.652 7.52345C119.64 6.85243 119.578 6.18324 119.467 5.52145C119.358 4.85929 119.149 4.21751 118.848 3.61813C118.23 2.4152 117.252 1.43603 116.049 0.818328C115.448 0.515575 114.804 0.304248 114.141 0.191328C113.48 0.0811107 112.811 0.0220157 112.141 0.0145679C111.836 0.00968793 111.523 0.00382793 111.219 0.00187793C110.859 -0.00012207 110.494 -0.00012207 110.135 -0.00012207V7.92969e-06Z" fill="black"/>
<path d="M8.44484 39.125C8.14016 39.125 7.84284 39.1211 7.54055 39.1143C6.91433 39.1061 6.28957 39.0516 5.67141 38.9512C5.095 38.8519 4.53661 38.6673 4.01467 38.4033C3.49751 38.1415 3.02582 37.7983 2.61767 37.3867C2.20361 36.98 1.85888 36.5082 1.59716 35.9902C1.33255 35.4688 1.14942 34.9099 1.05416 34.333C0.951281 33.7131 0.895621 33.0863 0.887656 32.458C0.881316 32.2471 0.873016 31.5449 0.873016 31.5449V8.44434C0.873016 8.44434 0.881856 7.75293 0.887706 7.5498C0.895332 6.92248 0.950668 6.29665 1.05324 5.67773C1.14868 5.09925 1.33194 4.53875 1.5967 4.01563C1.85746 3.49794 2.20027 3.02586 2.61184 2.61768C3.02294 2.20562 3.49614 1.8606 4.01418 1.59521C4.53492 1.33209 5.09225 1.14873 5.6675 1.05127C6.28769 0.949836 6.91462 0.894996 7.54301 0.88721L8.44533 0.875H111.214L112.127 0.8877C112.75 0.895099 113.371 0.94945 113.985 1.05029C114.566 1.14898 115.13 1.33362 115.656 1.59814C116.694 2.13299 117.539 2.97916 118.071 4.01807C118.332 4.53758 118.512 5.09351 118.606 5.66699C118.71 6.29099 118.768 6.92174 118.78 7.5542C118.783 7.8374 118.783 8.1416 118.783 8.44434C118.791 8.81934 118.791 9.17627 118.791 9.53613V30.4648C118.791 30.8281 118.791 31.1826 118.783 31.54C118.783 31.8652 118.783 32.1631 118.779 32.4697C118.768 33.0909 118.71 33.7104 118.608 34.3232C118.515 34.9043 118.333 35.4675 118.068 35.9932C117.805 36.5056 117.462 36.9733 117.053 37.3789C116.644 37.7927 116.172 38.1379 115.653 38.4014C115.128 38.6674 114.566 38.8527 113.985 38.9512C113.367 39.0522 112.742 39.1067 112.116 39.1143C111.823 39.1211 111.517 39.125 111.219 39.125L110.135 39.127L8.44484 39.125Z" fill="black"/>
<path d="M24.7689 20.3007C24.7907 18.6042 25.6801 17.0372 27.1254 16.1486C26.2095 14.8405 24.7304 14.0409 23.1343 13.9909C21.455 13.8147 19.8271 14.9958 18.9714 14.9958C18.0991 14.9958 16.7816 14.0084 15.3629 14.0376C13.4962 14.0979 11.7981 15.1335 10.89 16.7655C8.95597 20.1139 10.3986 25.035 12.2512 27.7416C13.1781 29.0669 14.2613 30.5474 15.6788 30.4949C17.0659 30.4373 17.5839 29.6104 19.2582 29.6104C20.917 29.6104 21.403 30.4949 22.8492 30.4615C24.3376 30.4373 25.2753 29.1302 26.1697 27.7923C26.8357 26.848 27.3481 25.8043 27.6881 24.6998C25.9204 23.9522 24.7709 22.22 24.7689 20.3007Z" fill="white"/>
<path d="M22.0372 12.2109C22.8488 11.2367 23.2486 9.98451 23.1518 8.72028C21.9119 8.8505 20.7667 9.44306 19.9442 10.3799C19.132 11.3042 18.7206 12.5134 18.8005 13.7413C20.0569 13.7542 21.2499 13.1902 22.0372 12.2109Z" fill="white"/>
<path fill-rule="evenodd" clip-rule="evenodd" d="M37.5689 27.1396H42.3023L43.438 30.4961H45.4771L40.9937 18.0781H38.9107L34.4273 30.4961H36.4322L37.5689 27.1396ZM41.8111 25.5908H38.0591L39.9097 20.1435H39.9615L41.8111 25.5908Z" fill="white"/>
<path fill-rule="evenodd" clip-rule="evenodd" d="M51.3814 30.5908C53.6538 30.5908 55.1597 28.7832 55.1597 25.9697C55.1597 23.1641 53.645 21.3477 51.3472 21.3477C50.1648 21.3095 49.0572 21.9245 48.4644 22.9482H48.4302V21.4424H46.6313V33.4912H48.4897V29.0068H48.5327C49.1003 30.037 50.2068 30.6523 51.3814 30.5908ZM50.857 22.9316C52.3023 22.9316 53.2495 24.1367 53.2495 25.9697C53.2495 27.8193 52.3023 29.0156 50.857 29.0156C49.437 29.0156 48.482 27.794 48.482 25.9697C48.482 24.1621 49.437 22.9316 50.857 22.9316Z" fill="white"/>
<path fill-rule="evenodd" clip-rule="evenodd" d="M61.3462 30.5908C63.6187 30.5908 65.1245 28.7832 65.1245 25.9697C65.1245 23.1641 63.6099 21.3477 61.312 21.3477C60.1296 21.3095 59.022 21.9245 58.4292 22.9482H58.395V21.4424H56.5962V33.4912H58.4546V29.0068H58.4976C59.0652 30.037 60.1716 30.6523 61.3462 30.5908ZM60.8218 22.9316C62.2671 22.9316 63.2144 24.1367 63.2144 25.9697H63.2144C63.2144 27.8193 62.2671 29.0156 60.8218 29.0156C59.4019 29.0156 58.4468 27.7939 58.4468 25.9697C58.4468 24.1621 59.4019 22.9316 60.8218 22.9316Z" fill="white"/>
<path d="M71.7105 27.0361C71.8482 28.2676 73.0445 29.0761 74.6792 29.0761C76.2456 29.0761 77.3726 28.2675 77.3726 27.1572C77.3726 26.1933 76.6929 25.6162 75.0835 25.2207L73.4742 24.833C71.1939 24.2822 70.1353 23.2158 70.1353 21.4853C70.1353 19.3427 72.0025 17.871 74.6538 17.871C77.2778 17.871 79.0767 19.3427 79.1372 21.4853H77.2612C77.1489 20.246 76.1245 19.498 74.6274 19.498C73.1304 19.498 72.106 20.2548 72.106 21.3564C72.106 22.2343 72.7603 22.7509 74.3608 23.1464L75.729 23.4823C78.2769 24.0849 79.3355 25.1083 79.3355 26.9247C79.3355 29.248 77.4849 30.703 74.5415 30.703C71.7876 30.703 69.9282 29.2821 69.8081 27.036L71.7105 27.0361Z" fill="white"/>
<path d="M83.3462 19.2998V21.4424H85.0679V22.9141H83.3462V27.9053C83.3462 28.6807 83.6909 29.042 84.4478 29.042C84.6522 29.0384 84.8562 29.0241 85.0591 28.999V30.4619C84.7188 30.5255 84.373 30.5543 84.0269 30.5478C82.1939 30.5478 81.479 29.8593 81.479 28.1035V22.9141H80.1626V21.4424H81.479V19.2998H83.3462Z" fill="white"/>
<path fill-rule="evenodd" clip-rule="evenodd" d="M90.359 21.3311C87.7427 21.3311 86.065 23.1211 86.065 25.9697C86.065 28.8262 87.7261 30.6084 90.359 30.6084C92.9927 30.6084 94.6539 28.8262 94.6539 25.9697C94.6539 23.1211 92.984 21.3311 90.359 21.3311ZM90.3589 22.8623C91.8648 22.8623 92.7603 24.0156 92.7603 25.9697H92.7603C92.7603 27.9316 91.8648 29.0762 90.3589 29.0762C88.8531 29.0762 87.9586 27.9316 87.9586 25.9697C87.9586 24.0244 88.8531 22.8623 90.3589 22.8623Z" fill="white"/>
<path d="M96.186 21.4424H97.9585V22.9834H98.0015C98.2487 21.9914 99.1576 21.3086 100.179 21.3476C100.393 21.3469 100.607 21.3701 100.816 21.417V23.1552C100.546 23.0726 100.264 23.0347 99.981 23.0429C99.4346 23.0208 98.9059 23.2385 98.5335 23.639C98.1612 24.0395 97.9826 24.5827 98.0444 25.1259V30.4961H96.186L96.186 21.4424Z" fill="white"/>
<path fill-rule="evenodd" clip-rule="evenodd" d="M105.486 30.6084C107.534 30.6084 109.134 29.4805 109.384 27.8369L107.62 27.8369C107.281 28.677 106.431 29.1948 105.529 29.1103C104.853 29.1352 104.198 28.8684 103.732 28.3778C103.266 27.8871 103.034 27.2199 103.093 26.5459V26.4336H109.488V25.7969C109.488 23.0518 107.913 21.3311 105.408 21.3311C102.861 21.3311 101.217 23.1729 101.217 26.0127C101.217 28.8437 102.852 30.6084 105.486 30.6084ZM107.628 25.1348L103.102 25.1348C103.101 24.5235 103.343 23.9369 103.776 23.5054C104.209 23.0739 104.796 22.8333 105.408 22.8369C106.014 22.8239 106.599 23.0644 107.02 23.5006C107.442 23.9368 107.662 24.5291 107.628 25.1348Z" fill="white"/>
<path fill-rule="evenodd" clip-rule="evenodd" d="M39.9318 9.54886C39.3879 8.97454 38.6151 8.67438 37.8262 8.73099H35.6709V14.6978H37.8262C39.6035 14.6978 40.6338 13.6021 40.6338 11.6958C40.7333 10.9111 40.4756 10.1232 39.9318 9.54886ZM37.7227 13.854H36.5977V9.5742H37.7227C38.2835 9.54308 38.8289 9.76421 39.2097 10.1771C39.5905 10.59 39.7668 11.1515 39.6904 11.708C39.7728 12.2668 39.599 12.8329 39.2172 13.2492C38.8355 13.6656 38.2865 13.8877 37.7227 13.854Z" fill="white"/>
<path fill-rule="evenodd" clip-rule="evenodd" d="M42.6794 10.4286C41.9905 10.8561 41.6035 11.6372 41.6807 12.4443C41.602 13.2523 41.9887 14.035 42.6782 14.4634C43.3677 14.8918 44.2407 14.8918 44.9302 14.4634C45.6198 14.035 46.0064 13.2523 45.9277 12.4443C46.005 11.6372 45.6179 10.8561 44.929 10.4286C44.2401 10.0011 43.3683 10.0011 42.6794 10.4286ZM43.8057 10.8975C44.5752 10.8975 45.0137 11.4683 45.0137 12.4443H45.0137C45.0137 13.4243 44.5752 13.9946 43.8057 13.9946C43.0332 13.9946 42.5987 13.4282 42.5987 12.4444C42.5987 11.4683 43.0332 10.8975 43.8057 10.8975Z" fill="white"/>
<path d="M51.5733 14.6978H50.6514L49.7207 11.3813H49.6504L48.7237 14.6978H47.8106L46.5694 10.1948H47.4707L48.2774 13.6308H48.3438L49.2696 10.1948H50.1221L51.0479 13.6308H51.1182L51.9209 10.1948H52.8096L51.5733 14.6978Z" fill="white"/>
<path d="M53.8535 10.1948H54.709V10.9102H54.7754C55.0063 10.3835 55.546 10.0613 56.1191 10.1079C56.563 10.0745 56.9979 10.2448 57.3011 10.5706C57.6043 10.8964 57.7429 11.3424 57.6777 11.7827V14.6977H56.7891V12.0059C56.7891 11.2822 56.4746 10.9224 55.8174 10.9224C55.5164 10.9084 55.2242 11.0265 55.0175 11.2458C54.8109 11.4652 54.7103 11.7638 54.7422 12.0635V14.6978H53.8535L53.8535 10.1948Z" fill="white"/>
<path d="M59.0938 8.43701H59.9825V14.6978H59.0938V8.43701Z" fill="white"/>
<path fill-rule="evenodd" clip-rule="evenodd" d="M62.2167 10.4285C61.5277 10.856 61.1406 11.6372 61.2178 12.4443C61.1392 13.2524 61.5259 14.035 62.2155 14.4634C62.9051 14.8918 63.778 14.8918 64.4676 14.4634C65.1572 14.035 65.5439 13.2524 65.4653 12.4443C65.5425 11.6372 65.1554 10.856 64.4664 10.4285C63.7775 10.001 62.9057 10.001 62.2167 10.4285ZM63.3428 10.8975C64.1123 10.8975 64.5508 11.4683 64.5508 12.4443H64.5508C64.5508 13.4243 64.1123 13.9946 63.3428 13.9946C62.5704 13.9946 62.1358 13.4282 62.1358 12.4444C62.1358 11.4683 62.5703 10.8975 63.3428 10.8975Z" fill="white"/>
<path fill-rule="evenodd" clip-rule="evenodd" d="M68.0757 12.0801C67.0044 12.1465 66.4009 12.6138 66.4009 13.4243C66.4024 13.8086 66.5664 14.1744 66.8524 14.4311C67.1384 14.6879 67.5196 14.8117 67.9019 14.7719C68.4472 14.7972 68.9639 14.5271 69.2544 14.0649H69.3247V14.6978H70.1802V11.6211C70.1802 10.6699 69.5435 10.1079 68.4146 10.1079C67.3931 10.1079 66.6656 10.604 66.5747 11.3774H67.4351C67.5337 11.0591 67.8775 10.877 68.3736 10.877C68.981 10.877 69.2954 11.1455 69.2954 11.6211V12.0098L68.0757 12.0801ZM69.2954 12.6631V13.0395C69.276 13.3265 69.1409 13.5933 68.9211 13.7789C68.7013 13.9645 68.4156 14.0529 68.1295 14.0239C67.646 14.0239 67.2945 13.7881 67.2945 13.3828C67.2945 12.9858 67.5757 12.7749 68.1958 12.7334L69.2954 12.6631Z" fill="white"/>
<path fill-rule="evenodd" clip-rule="evenodd" d="M73.2173 10.1201C72.0796 10.1201 71.3481 11.0215 71.3481 12.4444C71.3481 13.8706 72.0718 14.772 73.2173 14.772C73.7981 14.7934 74.3427 14.4907 74.6314 13.9863H74.7017V14.6978H75.5532V8.43701H74.6646V10.9101H74.5981C74.3298 10.4015 73.7918 10.0937 73.2173 10.1201ZM73.4693 13.9741C72.7163 13.9741 72.2661 13.3994 72.2661 12.4444H72.2661C72.2661 11.4971 72.7212 10.9185 73.4693 10.9185C74.2134 10.9185 74.6812 11.5098 74.6812 12.4483C74.6812 13.3911 74.2183 13.9741 73.4693 13.9741Z" fill="white"/>
<path fill-rule="evenodd" clip-rule="evenodd" d="M80.2287 10.4286C79.5398 10.8561 79.1528 11.6372 79.23 12.4443C79.1513 13.2523 79.538 14.035 80.2275 14.4634C80.9171 14.8918 81.79 14.8918 82.4795 14.4634C83.1691 14.035 83.5557 13.2523 83.4771 12.4443C83.5543 11.6372 83.1673 10.8561 82.4783 10.4286C81.7894 10.0011 80.9177 10.0011 80.2287 10.4286ZM81.355 10.8975C82.1245 10.8975 82.563 11.4683 82.563 12.4443C82.563 13.4243 82.1245 13.9946 81.355 13.9946C80.5826 13.9946 80.148 13.4282 80.148 12.4444C80.148 11.4683 80.5825 10.8975 81.355 10.8975Z" fill="white"/>
<path d="M84.6694 10.1948H85.5249V10.9102H85.5913C85.8222 10.3835 86.3619 10.0613 86.9351 10.1079C87.3789 10.0745 87.8138 10.2448 88.117 10.5706C88.4202 10.8964 88.5588 11.3424 88.4937 11.7827V14.6977H87.605V12.0059C87.605 11.2822 87.2905 10.9224 86.6333 10.9224C86.3323 10.9084 86.0401 11.0265 85.8335 11.2458C85.6268 11.4652 85.5262 11.7638 85.5581 12.0635V14.6978H84.6694V10.1948Z" fill="white"/>
<path d="M93.5152 9.07373V10.2153H94.4908V10.9639H93.5152V13.2793C93.5152 13.751 93.7095 13.9575 94.1519 13.9575C94.2651 13.9572 94.3783 13.9503 94.4908 13.937V14.6772C94.3312 14.7058 94.1695 14.721 94.0074 14.7227C93.0191 14.7227 92.6255 14.375 92.6255 13.5068V10.9638H91.9107V10.2153H92.6255V9.07373H93.5152Z" fill="white"/>
<path d="M95.7046 8.43701H96.5855V10.9185H96.6558C96.8978 10.3872 97.4469 10.0646 98.0288 10.1118C98.4701 10.0878 98.8991 10.2618 99.199 10.5864C99.4989 10.9111 99.6384 11.3525 99.5796 11.7905V14.6978H98.69V12.0098C98.69 11.2905 98.355 10.9263 97.7271 10.9263C97.4179 10.9009 97.1133 11.0133 96.8948 11.2334C96.6762 11.4535 96.5659 11.7589 96.5933 12.0679V14.6977H95.7047L95.7046 8.43701Z" fill="white"/>
<path fill-rule="evenodd" clip-rule="evenodd" d="M102.81 14.7847C103.69 14.8801 104.512 14.3313 104.761 13.4819L103.906 13.4819C103.692 13.8643 103.269 14.08 102.834 14.0278C102.499 14.0315 102.178 13.8936 101.95 13.6481C101.721 13.4025 101.607 13.072 101.635 12.7378V12.688H104.815V12.3779C104.815 10.9639 104.059 10.1079 102.806 10.1079C102.204 10.1028 101.63 10.3591 101.231 10.8105C100.833 11.2618 100.65 11.8638 100.73 12.4605C100.648 13.0555 100.831 13.6565 101.232 14.1041C101.633 14.5516 102.21 14.8005 102.81 14.7847ZM103.91 12.0308H101.635C101.631 11.7203 101.753 11.4213 101.972 11.2017C102.192 10.982 102.491 10.8604 102.801 10.8643C103.108 10.8573 103.403 10.9799 103.614 11.2021C103.825 11.4242 103.932 11.7252 103.91 12.0308Z" fill="white"/>
</svg>
