<svg width="40" height="40" viewBox="0 0 40 40" fill="none" xmlns="http://www.w3.org/2000/svg">
<path d="M20 40C31.0457 40 40 31.0457 40 20C40 8.9543 31.0457 0 20 0C8.95429 0 0 8.9543 0 20C0 31.0457 8.95429 40 20 40Z" fill="#F5AC37"/>
<path fill-rule="evenodd" clip-rule="evenodd" d="M20.7407 10.7407C24.6795 10.7407 28.0438 13.2 29.3819 16.6667L31.8519 16.6666V18.8889L29.934 18.8891C29.9776 19.2534 30 19.624 30 20C30 20.3761 29.9776 20.7469 29.934 21.1112L31.8519 21.1111V23.3334L29.3818 23.3336C28.0435 26.8001 24.6792 29.2592 20.7407 29.2592H12.7778V23.3334H10V21.1111H12.7778V18.8889H10V16.6666H12.7778V10.7407H20.7407ZM26.8944 23.3337L14.7219 23.3334L14.7222 27.4074H20.2778C23.1696 27.4074 25.6745 25.7502 26.8944 23.3337ZM27.6024 18.8889H14.7219V21.1111L27.6024 21.1115C27.6569 20.7489 27.6851 20.3777 27.6851 20C27.6851 19.6224 27.6569 19.2514 27.6024 18.8889ZM20.2778 12.5926H14.7222L14.7219 16.6666H26.8946C25.6747 14.2499 23.1698 12.5926 20.2778 12.5926Z" fill="white"/>
</svg>
