<svg width="40" height="40" viewBox="0 0 40 40" fill="none" xmlns="http://www.w3.org/2000/svg">
<path d="M20 40C31.0456 40 40 31.0456 40 20C40 8.9543 31.0456 0 20 0C8.9543 0 0 8.9543 0 20C0 31.0456 8.9543 40 20 40Z" fill="black"/>
<path d="M11.7 21.8286L20.0187 33.5481V26.7433L11.7 21.8286Z" fill="white"/>
<path opacity="0.6" d="M20.0188 26.7432V33.548L28.3408 21.8284L20.0188 26.7432Z" fill="white"/>
<path opacity="0.3" d="M28.3339 20.2522L20.0187 16.469L20.0186 25.167L28.3339 20.2522Z" fill="white"/>
<path opacity="0.6" d="M11.7 20.2525L20.0188 16.4692L20.0185 25.1671L11.7 20.2525Z" fill="white"/>
<path opacity="0.6" d="M20.0186 6.44995L28.3339 20.2522L20.0189 16.4691L20.0186 6.44995Z" fill="white"/>
<path d="M20.0188 6.44995V16.4691L11.7 20.2524L20.0188 6.44995Z" fill="white"/>
</svg>
