<svg width="135" height="40" viewBox="0 0 135 40" fill="none" xmlns="http://www.w3.org/2000/svg">
<path d="M130 40H5C2.2 40 0 37.8 0 35V5C0 2.2 2.2 0 5 0H130C132.8 0 135 2.2 135 5V35C135 37.7 132.8 40 130 40Z" fill="black"/>
<path d="M47.4 10.2C47.4 11 47.2 11.7 46.7 12.2C46.1 12.8 45.4 13.1 44.5 13.1C43.6 13.1 42.9 12.8 42.3 12.2C41.7 11.6 41.4 10.9 41.4 9.99999C41.4 9.09999 41.7 8.39999 42.3 7.79999C42.9 7.19999 43.6 6.89999 44.5 6.89999C44.9 6.89999 45.3 6.99999 45.7 7.19999C46.1 7.39999 46.4 7.59999 46.6 7.89999L46.1 8.39999C45.7 7.89999 45.2 7.69999 44.5 7.69999C43.9 7.69999 43.3 7.89999 42.9 8.39999C42.4 8.79999 42.2 9.39999 42.2 10.1C42.2 10.8 42.4 11.4 42.9 11.8C43.4 12.2 43.9 12.5 44.5 12.5C45.2 12.5 45.7 12.3 46.2 11.8C46.5 11.5 46.7 11.1 46.7 10.6H44.5V9.89999H47.4C47.4 9.89999 47.4 10.1 47.4 10.2Z" fill="white" stroke="white" stroke-width="0.2"/>
<path d="M52 7.7H49.3V9.6H51.8V10.3H49.3V12.2H52V13H48.5V7H52V7.7Z" fill="white" stroke="white" stroke-width="0.2"/>
<path d="M55.3 13H54.5V7.7H52.8V7H57V7.7H55.3V13Z" fill="white" stroke="white" stroke-width="0.2"/>
<path d="M59.9 13V7H60.7V13H59.9Z" fill="white" stroke="white" stroke-width="0.2"/>
<path d="M64.1 13H63.3V7.7H61.6V7H65.7V7.7H64V13H64.1Z" fill="white" stroke="white" stroke-width="0.2"/>
<path fill-rule="evenodd" clip-rule="evenodd" d="M71.4 13.1C72.3 13.1 73 12.8 73.6 12.2C74.2 11.6 74.5 10.9 74.5 9.99999C74.5 9.09999 74.2 8.39999 73.6 7.79999C73 7.19999 72.3 6.89999 71.4 6.89999C70.5 6.89999 69.8 7.19999 69.2 7.79999C68.6 8.39999 68.3 9.09999 68.3 9.99999C68.3 10.9 68.6 11.6 69.2 12.2C69.8 12.8 70.5 13.1 71.4 13.1ZM71.4 12.4C70.8 12.4 70.2 12.1 69.8 11.7C69.3 11.3 69.1 10.7 69.1 9.99999C69.1 9.29999 69.4 8.69999 69.8 8.29999C70.2 7.79999 70.8 7.59999 71.4 7.59999C72 7.59999 72.6 7.89999 73 8.29999C73.5 8.69999 73.7 9.29999 73.7 9.99999C73.7 10.7 73.4 11.3 73 11.7C72.6 12.2 72 12.4 71.4 12.4Z" fill="white"/>
<path d="M69.8 11.7L69.8711 11.6288L69.8625 11.6219L69.8 11.7ZM69.8 8.29999L69.8711 8.37114L69.8781 8.36246L69.8 8.29999ZM73 8.29999L72.9288 8.37114L72.9375 8.37808L73 8.29999ZM73 11.7L72.9288 11.6288L72.9219 11.6375L73 11.7ZM73.5293 12.1293C72.9481 12.7105 72.2735 13 71.4 13V13.2C72.3265 13.2 73.0519 12.8895 73.6707 12.2707L73.5293 12.1293ZM74.4 9.99999C74.4 10.8735 74.1105 11.5481 73.5293 12.1293L73.6707 12.2707C74.2895 11.6519 74.6 10.9265 74.6 9.99999H74.4ZM73.5293 7.8707C74.1105 8.45191 74.4 9.12646 74.4 9.99999H74.6C74.6 9.07352 74.2895 8.34807 73.6707 7.72928L73.5293 7.8707ZM71.4 6.99999C72.2735 6.99999 72.9481 7.28949 73.5293 7.8707L73.6707 7.72928C73.0519 7.11049 72.3265 6.79999 71.4 6.79999V6.99999ZM69.2707 7.8707C69.8519 7.28949 70.5265 6.99999 71.4 6.99999V6.79999C70.4735 6.79999 69.7481 7.11049 69.1293 7.72928L69.2707 7.8707ZM68.4 9.99999C68.4 9.12646 68.6895 8.45191 69.2707 7.8707L69.1293 7.72928C68.5105 8.34807 68.2 9.07352 68.2 9.99999H68.4ZM69.2707 12.1293C68.6895 11.5481 68.4 10.8735 68.4 9.99999H68.2C68.2 10.9265 68.5105 11.6519 69.1293 12.2707L69.2707 12.1293ZM71.4 13C70.5265 13 69.8519 12.7105 69.2707 12.1293L69.1293 12.2707C69.7481 12.8895 70.4735 13.2 71.4 13.2V13ZM69.7293 11.7707C70.1444 12.1859 70.7688 12.5 71.4 12.5V12.3C70.8312 12.3 70.2555 12.0141 69.8707 11.6293L69.7293 11.7707ZM69 9.99999C69 10.7184 69.2058 11.3527 69.7375 11.7781L69.8625 11.6219C69.3942 11.2473 69.2 10.6816 69.2 9.99999H69ZM69.7293 8.22928C69.3123 8.64622 69 9.27101 69 9.99999H69.2C69.2 9.32898 69.4876 8.75377 69.8707 8.3707L69.7293 8.22928ZM71.4 7.49999C70.779 7.49999 70.1461 7.70734 69.7219 8.23752L69.8781 8.36246C70.2539 7.89265 70.821 7.69999 71.4 7.69999V7.49999ZM73.0707 8.22928C72.6555 7.81413 72.0312 7.49999 71.4 7.49999V7.69999C71.9688 7.69999 72.5444 7.98585 72.9293 8.3707L73.0707 8.22928ZM73.8 9.99999C73.8 9.28157 73.5942 8.64727 73.0625 8.22191L72.9375 8.37808C73.4058 8.75272 73.6 9.31842 73.6 9.99999H73.8ZM73.0707 11.7707C73.4876 11.3538 73.8 10.729 73.8 9.99999H73.6C73.6 10.671 73.3123 11.2462 72.9293 11.6293L73.0707 11.7707ZM71.4 12.5C72.021 12.5 72.6539 12.2926 73.0781 11.7625L72.9219 11.6375C72.5461 12.1073 71.979 12.3 71.4 12.3V12.5Z" fill="white"/>
<path d="M75.6 13V7H76.5L79.4 11.7V10.5V7H80.2V13H79.4L76.3 8.1V9.3V13H75.6Z" fill="white" stroke="white" stroke-width="0.2"/>
<path fill-rule="evenodd" clip-rule="evenodd" d="M47.7 23.1V24.9H52C51.9 25.9 51.5 26.7 51 27.2C50.4 27.8 49.4 28.5 47.7 28.5C45 28.5 43 26.4 43 23.7C43 21 45.1 18.9 47.7 18.9C49.1 18.9 50.2 19.5 51 20.2L52.3 18.9C51.2 17.9 49.8 17.1 47.8 17.1C44.2 17.1 41.1 20.1 41.1 23.7C41.1 27.3 44.2 30.3 47.8 30.3C49.8 30.3 51.2 29.7 52.4 28.4C53.6 27.2 54 25.5 54 24.2V24.2C54 23.8 54 23.4 53.9 23.1H47.7ZM58.8 21.8C56.4 21.8 54.5 23.6 54.5 26.1C54.5 28.5 56.4 30.4 58.8 30.4C61.2 30.4 63.1 28.6 63.1 26.1C63.1 23.5 61.2 21.8 58.8 21.8ZM63.8 26.1C63.8 23.6 65.7 21.8 68.1 21.8C70.5 21.8 72.4 23.5 72.4 26.1C72.4 28.6 70.5 30.4 68.1 30.4C65.7 30.4 63.8 28.5 63.8 26.1ZM65.7 26C65.7 27.5 66.8 28.6 68.1 28.6C69.4 28.6 70.5 27.5 70.5 26C70.5 24.4 69.4 23.4 68.1 23.4C66.8 23.4 65.7 24.5 65.7 26ZM56.4 26C56.4 27.5 57.5 28.6 58.8 28.6C60.1 28.6 61.2 27.5 61.2 26C61.2 24.4 60.1 23.4 58.8 23.4C57.5 23.4 56.4 24.5 56.4 26ZM89.5 21.8C91.7 21.8 92.7 23.5 93.1 24.5L93.3 25L87.6 27.4C88.1 28.3 88.7 28.7 89.7 28.7C90.7 28.7 91.3 28.2 91.8 27.5L93.2 28.5C92.8 29.2 91.6 30.4 89.7 30.4C87.3 30.4 85.5 28.5 85.5 26.1C85.5 23.5 87.3 21.8 89.5 21.8ZM87.3 25.9C87.3 24.3 88.6 23.4 89.5 23.4C90.2 23.4 90.9 23.8 91.1 24.3L87.3 25.9ZM84.5 30H82.6V17.5H84.5V30ZM79.6 22.7C79.1 22.2 78.3 21.7 77.3 21.7C75.2 21.7 73.2 23.6 73.2 26C73.2 28.4 75.1 30.2 77.3 30.2C78.3 30.2 79.1 29.7 79.5 29.2H79.6V29.8C79.6 31.4 78.7 32.3 77.3 32.3C76.2 32.3 75.4 31.5 75.2 30.8L73.6 31.5C74.1 32.6 75.3 34 77.4 34C79.6 34 81.4 32.7 81.4 29.6V22H79.6V22.7ZM75 26C75 27.5 76.1 28.6 77.4 28.6C78.7 28.6 79.7 27.5 79.7 26C79.7 24.5 78.7 23.4 77.4 23.4C76.1 23.4 75 24.5 75 26ZM101.8 17.5H97.3V30H99.2V25.3H101.8C103.9 25.3 105.9 23.8 105.9 21.4C105.9 19 103.9 17.5 101.8 17.5ZM99.2 23.5H101.9C103.2 23.5 104 22.4 104.1 21.3C104.1 20.4 103.3 19.2 101.9 19.2H99.2V23.5ZM113.4 21.7C112 21.7 110.6 22.3 110.1 23.6L111.8 24.3C112.2 23.6 112.8 23.4 113.5 23.4C114.5 23.4 115.4 24 115.5 25V25.1C115.2 24.9 114.4 24.6 113.6 24.6C111.8 24.6 110 25.6 110 27.4C110 29.1 111.5 30.2 113.1 30.2C114.4 30.2 115 29.6 115.5 29H115.6V30H117.4V25.2C117.2 23 115.5 21.7 113.4 21.7ZM111.7 27.5C111.7 28.3 112.6 28.6 113.2 28.6C114.2 28.6 115.2 27.8 115.4 26.6C115.349 26.5798 115.3 26.5596 115.251 26.5396C114.815 26.3616 114.419 26.2 113.7 26.2C112.8 26.2 111.7 26.5 111.7 27.5ZM123.7 22L121.6 27.4H121.5L119.3 22H117.3L120.6 29.6L118.7 33.8H120.6L125.7 22H123.7ZM108.8 30H106.9V17.5H108.8V30Z" fill="white"/>
<path d="M10.4 7.5C10.1 7.8 9.89999 8.3 9.89999 8.9V31C9.89999 31.6 10.1 32.1 10.4 32.4L10.5 32.5L22.9 20.1V20V19.9L10.4 7.5Z" fill="url(#paint0_linear)"/>
<path d="M27 24.3L22.9 20.2V20V19.9L27 15.8L27.1 15.9L32 18.7C33.4 19.5 33.4 20.8 32 21.6L27 24.3Z" fill="url(#paint1_linear)"/>
<path d="M27.1 24.2L22.9 20L10.4 32.5C10.9 33 11.6 33 12.5 32.6L27.1 24.2Z" fill="url(#paint2_linear)"/>
<path d="M27.1 15.8L12.5 7.49999C11.6 6.99999 10.9 7.09999 10.4 7.59999L22.9 20L27.1 15.8Z" fill="url(#paint3_linear)"/>
<path opacity="0.2" d="M27 24.1L12.5 32.3C11.7 32.8 11 32.7 10.5 32.3L10.4 32.4L10.5 32.5C11 32.9 11.7 33 12.5 32.5L27 24.1Z" fill="black"/>
<path opacity="0.12" d="M10.4 32.3C10.1 32 10 31.5 10 30.9V31C10 31.6 10.2 32.1 10.5 32.4V32.3H10.4Z" fill="black"/>
<path opacity="0.12" d="M32 21.3L27 24.1L27.1 24.2L32 21.4C32.7 21 33 20.5 33 20C33 20.5 32.6 20.9 32 21.3Z" fill="black"/>
<path opacity="0.25" d="M12.5 7.6L32 18.7C32.6 19.1 33 19.5 33 20C33 19.5 32.7 19 32 18.6L12.5 7.5C11.1 6.7 10 7.4 10 9V9.1C10 7.5 11.1 6.8 12.5 7.6Z" fill="white"/>
<defs>
<linearGradient id="paint0_linear" x1="17.4363" y1="-7.42722" x2="-2.43144" y2="-2.05499" gradientUnits="userSpaceOnUse">
<stop stop-color="#00A0FF"/>
<stop offset="0.00657445" stop-color="#00A1FF"/>
<stop offset="0.2601" stop-color="#00BEFF"/>
<stop offset="0.5122" stop-color="#00D2FF"/>
<stop offset="0.7604" stop-color="#00DFFF"/>
<stop offset="1" stop-color="#00E3FF"/>
</linearGradient>
<linearGradient id="paint1_linear" x1="33.8344" y1="9.86968" x2="9.63749" y2="9.86968" gradientUnits="userSpaceOnUse">
<stop stop-color="#FFE000"/>
<stop offset="0.4087" stop-color="#FFBD00"/>
<stop offset="0.7754" stop-color="#FFA500"/>
<stop offset="1" stop-color="#FF9C00"/>
</linearGradient>
<linearGradient id="paint2_linear" x1="10.0828" y1="13.514" x2="-5.88265" y2="40.3184" gradientUnits="userSpaceOnUse">
<stop stop-color="#FF3A44"/>
<stop offset="1" stop-color="#C31162"/>
</linearGradient>
<linearGradient id="paint3_linear" x1="0.682694" y1="4.07958" x2="7.75568" y2="16.0653" gradientUnits="userSpaceOnUse">
<stop stop-color="#32A071"/>
<stop offset="0.0685" stop-color="#2DA771"/>
<stop offset="0.4762" stop-color="#15CF74"/>
<stop offset="0.8009" stop-color="#06E775"/>
<stop offset="1" stop-color="#00F076"/>
</linearGradient>
</defs>
</svg>
